<svg xmlns="http://www.w3.org/2000/svg" viewBox="0 0 16 16">
    <circle r="7" cx="8" cy="8" fill="none" stroke-width="1.5" stroke="black" />
    <circle r="3.5" cx="8" cy="8" fill="none" stroke-width="1.5" stroke="black" />
    <path d="M6.5,1.2q-1,1,0,3M9.5,1.2q1,1,0,3" stroke-width="1.5" stroke="black" />
    <path d="M6.5,1.2q-1,1,0,3M9.5,1.2q1,1,0,3" stroke-width="1.5" transform="rotate(90 8 8)" stroke="black" />
    <path d="M6.5,1.2q-1,1,0,3M9.5,1.2q1,1,0,3" stroke-width="1.5" transform="rotate(180 8 8)" stroke="black" />
    <path d="M6.5,1.2q-1,1,0,3M9.5,1.2q1,1,0,3" stroke-width="1.5" transform="rotate(-90 8 8)" stroke="black" />
</svg>