<svg xmlns="http://www.w3.org/2000/svg" viewBox="0 0 16 16">
<g transform="rotate(45 8 8)">
    <circle r="4.7" cx="8" cy="8" fill="none" stroke="black" stroke-width="2" />
    <circle r="2" cx="8" cy="8" fill="black" stroke="black" stroke-width="1" />    
    <path d="M6,3.45c1,-1,0,-2,2,-2L10,3.45c-1,-1,0,-2,-2,-2zM8,2v2.5" fill="black" stroke="black" stroke-width="1.5" stroke-linecap="round"/>
    <path d="M6,3.45c1,-1,0,-2,2,-2L10,3.45c-1,-1,0,-2,-2,-2zM8,2v2.5" fill="black" stroke="black" transform="rotate(60 8 8)" stroke-width="1.5" stroke-linecap="round"/>
    <path d="M6,3.45c1,-1,0,-2,2,-2L10,3.45c-1,-1,0,-2,-2,-2zM8,2v2.5" fill="black" stroke="black" transform="rotate(120 8 8)" stroke-width="1.5" stroke-linecap="round"/>
    <path d="M6,3.45c1,-1,0,-2,2,-2L10,3.45c-1,-1,0,-2,-2,-2zM8,2v2.5" fill="black" stroke="black" transform="rotate(180 8 8)" stroke-width="1.5" stroke-linecap="round"/>
    <path d="M6,3.45c1,-1,0,-2,2,-2L10,3.45c-1,-1,0,-2,-2,-2zM8,2v2.5" fill="black" stroke="black" transform="rotate(240 8 8)" stroke-width="1.5" stroke-linecap="round"/>
    <path d="M6,3.45c1,-1,0,-2,2,-2L10,3.45c-1,-1,0,-2,-2,-2zM8,2v2.5" fill="black" stroke="black" transform="rotate(300 8 8)" stroke-width="1.5" stroke-linecap="round"/>
    <circle r=".6" cx="8" cy="2.5" fill="#ffffff" />
    <circle r=".6" cx="8" cy="2.5" fill="#ffffff" transform="rotate(60 8 8)" />
    <circle r=".6" cx="8" cy="2.5" fill="#ffffff" transform="rotate(120 8 8)" />
    <circle r=".6" cx="8" cy="2.5" fill="#ffffff" transform="rotate(180 8 8)" />
    <circle r=".6" cx="8" cy="2.5" fill="#ffffff" transform="rotate(240 8 8)" />
    <circle r=".6" cx="8" cy="2.5" fill="#ffffff" transform="rotate(300 8 8)"/>   
</g>
</svg>